# File created by Blade
# Date/Time:  Fri Jan 16 19:41:12 2015
# Frame Rate: 120.000 fps
#------------------------------------------------------
:FULLY-SPECIFIED
:DEGREES
1147
root 18.343874 35.460169 -20.823541 8.574492 1.884419 -0.897357
Spine -23.526039 -2.000696 0.963104
Head 39.618771 -5.165217 -9.036078
LeftShoulder -26.566055 -49.201737 50.002223
LeftArm 76.797539 -26.428308 -41.261207
LeftForeArm -21.467899 -0.000000 152.104887
LeftHand 0.719761 0.000000 7.629761
LeftHandThumb1 -26.253704 0.000000 33.147579
RightShoulder -2.691234 -39.119776 -0.324108
RightArm -0.003985 -65.455495 72.874750
RightForeArm -11.097555 -0.000000 132.350585
RightHand 9.374968 0.000000 48.047191
RightHandThumb1 -24.326973 -0.000000 -32.862282
LeftUpLeg 2.480281 4.047443 1.835224
LeftLeg -6.022412 -0.000000 0.000000
LeftFoot -22.623674 29.310639 -15.595185
LeftToeBase 23.676070 -0.000000 -0.000000
RightUpLeg 2.260791 -7.815946 -1.075662
RightLeg -3.890452 -0.000000 0.000000
RightFoot -23.119394 -23.209282 20.093749
RightToeBase 22.512502 -0.000000 -0.000000
1148
root 18.365856 35.463668 -20.847839 8.490277 1.970288 -0.874978
Spine -23.337915 -2.055077 0.865920
Head 40.042827 -5.227965 -9.089225
LeftShoulder -26.270798 -49.049739 49.665796
LeftArm 76.436568 -26.640700 -41.122792
LeftForeArm -21.074342 -0.000000 152.149955
LeftHand 0.790111 -0.000000 8.025451
LeftHandThumb1 -26.253704 0.000000 33.147579
RightShoulder -2.659891 -39.310984 -0.424619
RightArm 0.123146 -65.262069 72.808756
RightForeArm -11.501663 -0.000000 132.325889
RightHand 9.341549 -0.000000 48.086013
RightHandThumb1 -24.326973 -0.000000 -32.862282
LeftUpLeg 2.497228 4.008088 1.790486
LeftLeg -5.999927 -0.000000 0.000000
LeftFoot -22.572953 29.289112 -15.518872
LeftToeBase 23.733213 -0.000000 -0.000000
RightUpLeg 2.292427 -7.804897 -1.130461
RightLeg -3.837464 -0.000000 0.000000
RightFoot -23.126165 -23.298313 20.112240
RightToeBase 22.500859 -0.000000 -0.000000
1149
root 18.387838 35.467954 -20.874037 8.367035 2.075998 -0.841592
Spine -23.091952 -2.130368 0.737472
Head 40.466377 -5.338007 -9.079527
LeftShoulder -26.096265 -48.928292 49.428486
LeftArm 76.008720 -26.688329 -40.973112
LeftForeArm -20.703293 -0.000000 152.176444
LeftHand 0.752386 -0.000000 8.574594
LeftHandThumb1 -26.253704 0.000000 33.147579
RightShoulder -2.582567 -39.325540 -0.478958
RightArm -0.224717 -65.137950 73.152550
RightForeArm -11.957182 0.000000 132.302731
RightHand 9.478621 0.000000 48.195064
RightHandThumb1 -24.326973 -0.000000 -32.862282
LeftUpLeg 2.549772 3.942848 1.740707
LeftLeg -5.976709 -0.000000 0.000000
LeftFoot -22.522349 29.250054 -15.471285
LeftToeBase 23.774934 -0.000000 -0.000000
RightUpLeg 2.363633 -7.854113 -1.197837
RightLeg -3.786364 -0.000000 0.000000
RightFoot -23.121935 -23.365336 20.116807
RightToeBase 22.484261 -0.000000 -0.000000
1150
root 18.410862 35.472220 -20.903050 8.299998 2.188124 -0.803694
Spine -22.903835 -2.170807 0.602155
Head 40.860062 -5.455876 -9.076467
LeftShoulder -25.850620 -48.814884 49.143834
LeftArm 75.487722 -26.850731 -40.782913
LeftForeArm -20.456063 -0.000000 152.201057
LeftHand 0.781693 0.000000 9.175918
LeftHandThumb1 -26.253704 0.000000 33.147579
RightShoulder -2.584143 -39.311941 -0.495671
RightArm -0.737636 -64.923359 73.634575
RightForeArm -12.503904 -0.000000 132.326992
RightHand 9.366521 -0.000000 48.010097
RightHandThumb1 -24.326973 -0.000000 -32.862282
LeftUpLeg 2.543938 3.882583 1.671910
LeftLeg -5.975978 -0.000000 0.000000
LeftFoot -22.435318 29.290556 -15.390974
LeftToeBase 23.767082 -0.000000 -0.000000
RightUpLeg 2.373849 -7.918780 -1.261566
RightLeg -3.732279 -0.000000 0.000000
RightFoot -23.125054 -23.410322 20.145705
RightToeBase 22.454240 -0.000000 -0.000000
1151
root 18.432581 35.476127 -20.929798 8.227836 2.300345 -0.772555
Spine -22.706652 -2.267417 0.454470
Head 41.228993 -5.589441 -9.014276
LeftShoulder -25.965268 -48.701909 49.289952
LeftArm 74.746034 -26.682621 -40.650086
LeftForeArm -20.214385 0.000000 152.270872
LeftHand 0.786441 -0.000000 9.910018
LeftHandThumb1 -26.253704 0.000000 33.147579
RightShoulder -2.556286 -39.333647 -0.503921
RightArm -0.993765 -64.749356 73.808393
RightForeArm -13.208113 -0.000000 132.319816
RightHand 9.441998 0.000000 47.729698
RightHandThumb1 -24.326973 -0.000000 -32.862282
LeftUpLeg 2.555724 3.824748 1.619210
LeftLeg -5.977084 -0.000000 0.000000
LeftFoot -22.369895 29.251080 -15.335900
LeftToeBase 23.761982 -0.000000 -0.000000
RightUpLeg 2.395598 -7.973314 -1.320917
RightLeg -3.682903 -0.000000 0.000000
RightFoot -23.123822 -23.470456 20.161085
RightToeBase 22.443974 -0.000000 -0.000000
1152
root 18.455421 35.479626 -20.958744 8.194465 2.426305 -0.735588
Spine -22.553416 -2.363707 0.304553
Head 41.595589 -5.744234 -8.944936
LeftShoulder -25.726594 -48.506384 49.048067
LeftArm 74.153668 -26.942965 -40.475065
LeftForeArm -20.467474 -0.000000 152.225121
LeftHand 0.897858 -0.000000 10.484066
LeftHandThumb1 -26.253704 0.000000 33.147579
RightShoulder -2.534145 -39.359882 -0.545360
RightArm -1.264776 -64.562060 74.020559
RightForeArm -13.673406 -0.000000 132.336910
RightHand 9.383286 -0.000000 47.508713
RightHandThumb1 -24.326973 -0.000000 -32.862282
LeftUpLeg 2.516879 3.716469 1.557158
LeftLeg -5.961985 -0.000000 0.000000
LeftFoot -22.321680 29.248353 -15.292211
LeftToeBase 23.744445 -0.000000 -0.000000
RightUpLeg 2.372638 -8.053285 -1.378194
RightLeg -3.626933 -0.000000 0.000000
RightFoot -23.125395 -23.525069 20.162434
RightToeBase 22.446619 -0.000000 -0.000000
1153
root 18.478766 35.483664 -20.990795 8.176966 2.540539 -0.712721
Spine -22.410431 -2.408627 0.162314
Head 41.957118 -5.905242 -8.845466
LeftShoulder -25.369651 -48.431911 48.686866
LeftArm 73.529939 -27.325189 -40.192928
LeftForeArm -20.867120 -0.000000 152.136157
LeftHand 1.100063 -0.000000 11.274351
LeftHandThumb1 -26.253704 0.000000 33.147579
RightShoulder -2.538843 -39.384673 -0.568435
RightArm -1.595078 -64.371736 74.289618
RightForeArm -14.329825 0.000000 132.348032
RightHand 9.278300 0.000000 47.249504
RightHandThumb1 -24.326973 -0.000000 -32.862282
LeftUpLeg 2.457889 3.649379 1.504347
LeftLeg -5.948717 -0.000000 0.000000
LeftFoot -22.275955 29.220138 -15.253207
LeftToeBase 23.776849 -0.000000 -0.000000
RightUpLeg 2.321631 -8.117100 -1.421420
RightLeg -3.560107 -0.000000 0.000000
RightFoot -23.141703 -23.574945 20.210103
RightToeBase 22.416461 -0.000000 -0.000000
1154
root 18.503700 35.487225 -21.020648 8.147923 2.667755 -0.691010
Spine -22.249390 -2.484675 0.025526
Head 42.307680 -6.108776 -8.797457
LeftShoulder -25.159727 -48.502814 48.493733
LeftArm 72.701976 -27.434237 -39.773503
LeftForeArm -21.206225 0.000000 152.065384
LeftHand 1.388826 -0.000000 12.329646
LeftHandThumb1 -26.253704 0.000000 33.147579
RightShoulder -2.563924 -39.434645 -0.612609
RightArm -1.690371 -64.260256 74.319080
RightForeArm -14.981660 -0.000000 132.358601
RightHand 9.264351 -0.000000 46.930840
RightHandThumb1 -24.326973 -0.000000 -32.862282
LeftUpLeg 2.418031 3.608095 1.450844
LeftLeg -5.948241 -0.000000 0.000000
LeftFoot -22.201257 29.170824 -15.165108
LeftToeBase 23.805707 -0.000000 -0.000000
RightUpLeg 2.293766 -8.210562 -1.467858
RightLeg -3.503906 -0.000000 0.000000
RightFoot -23.137164 -23.605665 20.237937
RightToeBase 22.431952 -0.000000 -0.000000
1155
root 18.527888 35.490895 -21.052477 8.121894 2.797966 -0.670018
Spine -22.082372 -2.588431 -0.134607
Head 42.657641 -6.352767 -8.693757
LeftShoulder -25.036676 -48.283736 48.317233
LeftArm 72.062742 -27.516603 -39.547897
LeftForeArm -21.421742 -0.000000 152.038238
LeftHand 1.584108 -0.000000 13.604317
LeftHandThumb1 -26.253704 0.000000 33.147579
RightShoulder -2.574042 -39.498329 -0.623713
RightArm -1.761506 -64.123241 74.272914
RightForeArm -15.666529 -0.000000 132.422472
RightHand 9.190255 -0.000000 46.646445
RightHandThumb1 -24.326973 -0.000000 -32.862282
LeftUpLeg 2.368895 3.541336 1.398313
LeftLeg -5.943649 -0.000000 0.000000
LeftFoot -22.141602 29.153046 -15.108595
LeftToeBase 23.751382 -0.000000 -0.000000
RightUpLeg 2.252262 -8.300378 -1.510286
RightLeg -3.428611 -0.000000 0.000000
RightFoot -23.133344 -23.626481 20.284604
RightToeBase 22.347157 -0.000000 -0.000000
1156
root 18.555487 35.494521 -21.083778 8.097763 2.929119 -0.643428
Spine -21.931075 -2.645424 -0.295497
Head 43.034114 -6.551736 -8.558453
LeftShoulder -24.840847 -48.122757 48.068443
LeftArm 71.394752 -27.682455 -39.385928
LeftForeArm -21.983961 -0.000000 152.010300
LeftHand 1.833492 -0.000000 14.588639
LeftHandThumb1 -26.253704 0.000000 33.147579
RightShoulder -2.593621 -39.566177 -0.654933
RightArm -1.935462 -64.008875 74.349895
RightForeArm -16.452511 -0.000000 132.448836
RightHand 9.115731 0.000000 46.278007
RightHandThumb1 -24.326973 -0.000000 -32.862282
LeftUpLeg 2.323367 3.436686 1.335347
LeftLeg -5.943042 -0.000000 0.000000
LeftFoot -22.116695 29.148140 -15.085337
LeftToeBase 23.794399 -0.000000 -0.000000
RightUpLeg 2.207916 -8.402601 -1.565552
RightLeg -3.351453 -0.000000 0.000000
RightFoot -23.136792 -23.654982 20.307443
RightToeBase 22.370117 -0.000000 -0.000000
